<svg xmlns="http://www.w3.org/2000/svg" viewBox="0 0 300 100" fill="none" xmlns:c2pa="http://c2pa.org/manifest"><metadata><c2pa:manifest>AAAWgmp1bWIAAAAeanVtZGMycGEAEQAQgAAAqgA4m3EDYzJwYQAAABZcanVtYgAAAEdqdW1kYzJtYQARABCAAACqADibcQN1cm46YzJwYTpiNDk4MmM3OC1lOTE5LTQyNzItYTE3YS04MzZhMDJlMWUwMjIAAAADl2p1bWIAAAApanVtZGMyYXMAEQAQgAAAqgA4m3EDYzJwYS5hc3NlcnRpb25zAAAAALxqdW1iAAAARGp1bWRjYm9yABEAEIAAAKoAOJtxE2MycGEuaW5ncmVkaWVudC52MwAAAAAYYzJzaJPRjP9UYAkoVaq7SHjaxgMAAABwY2JvcqNpZGM6Zm9ybWF0bWltYWdlL3N2Zyt4bWxqaW5zdGFuY2VJRHgseG1wOmlpZDphMGIzMDRkMS02ZTEwLTQyZDAtYjVkZi1iZTg3NWY5ODE2YTdscmVsYXRpb25zaGlwaHBhcmVudE9mAAAB4mp1bWIAAABBanVtZGNib3IAEQAQgAAAqgA4m3ETYzJwYS5hY3Rpb25zLnYyAAAAABhjMnNos8/pqmkwhx9gx0MU79tkWwAAAZljYm9yomdhY3Rpb25zgqJmYWN0aW9ua2MycGEub3BlbmVkanBhcmFtZXRlcnOha2luZ3JlZGllbnRzgaJjdXJseC1zZWxmI2p1bWJmPWMycGEuYXNzZXJ0aW9ucy9jMnBhLmluZ3JlZGllbnQudjNkaGFzaFggflZ++5wW2FEzlTfwjvWGD62xokPwipD6HJleREv8NRukZmFjdGlvbngdY29tLmFudGhyb3BpYy5jbGF1ZGUucHJvdmlkZWRqcGFyYW1ldGVyc6F4H2NvbS5hbnRocm9waWMub3JpZ2luLWNvbmZpZGVuY2VndW5rbm93bmtkZXNjcmlwdGlvbnhmQ2xhdWRlIHByb3ZpZGVkIHRoaXMgZmlsZSBhdCB0aGUgcmVxdWVzdCBvZiBhIHVzZXIgYW5kIG1heSBoYXZlIGNyZWF0ZWQgb3IgbW9kaWZpZWQgdGhlIGZpbGUgY29udGVudHMubXNvZnR3YXJlQWdlbnShZG5hbWVmQ2xhdWRlcmFsbEFjdGlvbnNJbmNsdWRlZPUAAADIanVtYgAAAEBqdW1kY2JvcgARABCAAACqADibcRNjMnBhLmhhc2guZGF0YQAAAAAYYzJzaG4TPmL1rJpz4xEZALKhEggAAACAY2JvcqVjYWxnZnNoYTI1NmNwYWRNAAAAAAAAAAAAAAAAAGRoYXNoWCBHdHKRe2XGIcE84AWPuRhX9jiyylXVUCJm0OqAr0tJkWRuYW1lbmp1bWJmIG1hbmlmZXN0amV4Y2x1c2lvbnOBomVzdGFydBiJZmxlbmd0aBkeBAAAAj5qdW1iAAAAJ2p1bWRjMmNsABEAEIAAAKoAOJtxA2MycGEuY2xhaW0udjIAAAACD2Nib3KlY2FsZ2ZzaGEyNTZpc2lnbmF0dXJleE1zZWxmI2p1bWJmPS9jMnBhL3VybjpjMnBhOmI0OTgyYzc4LWU5MTktNDI3Mi1hMTdhLTgzNmEwMmUxZTAyMi9jMnBhLnNpZ25hdHVyZWppbnN0YW5jZUlEeCx4bXA6aWlkOjU0MTk3YjUwLWM4NzktNDNmYS1hYThlLTJhYzQwNmU2Y2IwZXJjcmVhdGVkX2Fzc2VydGlvbnODomN1cmx4LXNlbGYjanVtYmY9YzJwYS5hc3NlcnRpb25zL2MycGEuaW5ncmVkaWVudC52M2RoYXNoWCB+Vn77nBbYUTOVN/CO9YYPrbGiQ/CKkPocmV5ES/w1G6JjdXJseCpzZWxmI2p1bWJmPWMycGEuYXNzZXJ0aW9ucy9jMnBhLmFjdGlvbnMudjJkaGFzaFggSJdGWFVkYzX7tkmIHei4LcEP4yG+tvDDxuT3/TOdY4uiY3VybHgpc2VsZiNqdW1iZj1jMnBhLmFzc2VydGlvbnMvYzJwYS5oYXNoLmRhdGFkaGFzaFggJvT5Udt+du7KAAU4glnWuaxRdSkXk/KzgDYIkOt25RN0Y2xhaW1fZ2VuZXJhdG9yX2luZm+jZG5hbWVvQW50aHJvcGljIEZpbGVzZ3ZlcnNpb25lMS4wLjBrc3BlY1ZlcnNpb25lMi40LjAAABA4anVtYgAAAChqdW1kYzJjcwARABCAAACqADibcQNjMnBhLnNpZ25hdHVyZQAAABAIY2JvctKEWQISogEmGCFZAgowggIGMIIBjaADAgECAhRA5aAK7sI50L64g/oGQgU9Z1UTADAKBggqhkjOPQQDAzBJMRcwFQYDVQQKEw5BbnRocm9waWMsIFBCQzEuMCwGA1UEAxMlQW50aHJvcGljIENvbnRlbnQgQ3JlZGVudGlhbHMgUm9vdCBDQTAeFw0yNjA4MDcxODQzNTZaFw0yODA4MDYxOTQzNTZaMEQxFzAVBgNVBAoTDkFudGhyb3BpYywgUEJDMSkwJwYDVQQDEyBBbnRocm9waWMgQ2xhdWRlIENvbnRlbnQgU2lnbmluZzBZMBMGByqGSM49AgEGCCqGSM49AwEHA0IABJh6CmvLUBgFFNU0vUKlOVtE6djd17L5SuwX0LemFisBM3dkd/3cyjxFA3Qo5S46fX0/ihY0VZ7mfb9KF703t5OjWDBWMA4GA1UdDwEB/wQEAwIHgDAVBgNVHSUEDjAMBgorBgEEAYPoXgIBMAwGA1UdEwEB/wQCMAAwHwYDVR0jBBgwFoAUzlHiBIFOZFsj+OPEz5o+nMHXXMIwCgYIKoZIzj0EAwMDZwAwZAIwMXMdFJ4BetLLVY7ORuE9noqbbAZOZn/aArXyTwFAZfKrPzxF2vPoJNf1+UCdg1XGAjBwX1zd9WGqYkqmL5SFqw1QySjr1zJfpJM9+1rdDwSPLMOPOjKuiXjoU/pUUeG9RwmhY3BhZFkNngAAAAAAAAAAAAAAAAAAAAAAAAAAAAAAAAAAAAAAAAAAAAAAAAAAAAAAAAAAAAAAAAAAAAAAAAAAAAAAAAAAAAAAAAAAAAAAAAAAAAAAAAAAAAAAAAAAAAAAAAAAAAAAAAAAAAAAAAAAAAAAAAAAAAAAAAAAAAAAAAAAAAAAAAAAAAAAAAAAAAAAAAAAAAAAAAAAAAAAAAAAAAAAAAAAAAAAAAAAAAAAAAAAAAAAAAAAAAAAAAAAAAAAAAAAAAAAAAAAAAAAAAAAAAAAAAAAAAAAAAAAAAAAAAAAAAAAAAAAAAAAAAAAAAAAAAAAAAAAAAAAAAAAAAAAAAAAAAAAAAAAAAAAAAAAAAAAAAAAAAAAAAAAAAAAAAAAAAAAAAAAAAAAAAAAAAAAAAAAAAAAAAAAAAAAAAAAAAAAAAAAAAAAAAAAAAAAAAAAAAAAAAAAAAAAAAAAAAAAAAAAAAAAAAAAAAAAAAAAAAAAAAAAAAAAAAAAAAAAAAAAAAAAAAAAAAAAAAAAAAAAAAAAAAAAAAAAAAAAAAAAAAAAAAAAAAAAAAAAAAAAAAAAAAAAAAAAAAAAAAAAAAAAAAAAAAAAAAAAAAAAAAAAAAAAAAAAAAAAAAAAAAAAAAAAAAAAAAAAAAAAAAAAAAAAAAAAAAAAAAAAAAAAAAAAAAAAAAAAAAAAAAAAAAAAAAAAAAAAAAAAAAAAAAAAAAAAAAAAAAAAAAAAAAAAAAAAAAAAAAAAAAAAAAAAAAAAAAAAAAAAAAAAAAAAAAAAAAAAAAAAAAAAAAAAAAAAAAAAAAAAAAAAAAAAAAAAAAAAAAAAAAAAAAAAAAAAAAAAAAAAAAAAAAAAAAAAAAAAAAAAAAAAAAAAAAAAAAAAAAAAAAAAAAAAAAAAAAAAAAAAAAAAAAAAAAAAAAAAAAAAAAAAAAAAAAAAAAAAAAAAAAAAAAAAAAAAAAAAAAAAAAAAAAAAAAAAAAAAAAAAAAAAAAAAAAAAAAAAAAAAAAAAAAAAAAAAAAAAAAAAAAAAAAAAAAAAAAAAAAAAAAAAAAAAAAAAAAAAAAAAAAAAAAAAAAAAAAAAAAAAAAAAAAAAAAAAAAAAAAAAAAAAAAAAAAAAAAAAAAAAAAAAAAAAAAAAAAAAAAAAAAAAAAAAAAAAAAAAAAAAAAAAAAAAAAAAAAAAAAAAAAAAAAAAAAAAAAAAAAAAAAAAAAAAAAAAAAAAAAAAAAAAAAAAAAAAAAAAAAAAAAAAAAAAAAAAAAAAAAAAAAAAAAAAAAAAAAAAAAAAAAAAAAAAAAAAAAAAAAAAAAAAAAAAAAAAAAAAAAAAAAAAAAAAAAAAAAAAAAAAAAAAAAAAAAAAAAAAAAAAAAAAAAAAAAAAAAAAAAAAAAAAAAAAAAAAAAAAAAAAAAAAAAAAAAAAAAAAAAAAAAAAAAAAAAAAAAAAAAAAAAAAAAAAAAAAAAAAAAAAAAAAAAAAAAAAAAAAAAAAAAAAAAAAAAAAAAAAAAAAAAAAAAAAAAAAAAAAAAAAAAAAAAAAAAAAAAAAAAAAAAAAAAAAAAAAAAAAAAAAAAAAAAAAAAAAAAAAAAAAAAAAAAAAAAAAAAAAAAAAAAAAAAAAAAAAAAAAAAAAAAAAAAAAAAAAAAAAAAAAAAAAAAAAAAAAAAAAAAAAAAAAAAAAAAAAAAAAAAAAAAAAAAAAAAAAAAAAAAAAAAAAAAAAAAAAAAAAAAAAAAAAAAAAAAAAAAAAAAAAAAAAAAAAAAAAAAAAAAAAAAAAAAAAAAAAAAAAAAAAAAAAAAAAAAAAAAAAAAAAAAAAAAAAAAAAAAAAAAAAAAAAAAAAAAAAAAAAAAAAAAAAAAAAAAAAAAAAAAAAAAAAAAAAAAAAAAAAAAAAAAAAAAAAAAAAAAAAAAAAAAAAAAAAAAAAAAAAAAAAAAAAAAAAAAAAAAAAAAAAAAAAAAAAAAAAAAAAAAAAAAAAAAAAAAAAAAAAAAAAAAAAAAAAAAAAAAAAAAAAAAAAAAAAAAAAAAAAAAAAAAAAAAAAAAAAAAAAAAAAAAAAAAAAAAAAAAAAAAAAAAAAAAAAAAAAAAAAAAAAAAAAAAAAAAAAAAAAAAAAAAAAAAAAAAAAAAAAAAAAAAAAAAAAAAAAAAAAAAAAAAAAAAAAAAAAAAAAAAAAAAAAAAAAAAAAAAAAAAAAAAAAAAAAAAAAAAAAAAAAAAAAAAAAAAAAAAAAAAAAAAAAAAAAAAAAAAAAAAAAAAAAAAAAAAAAAAAAAAAAAAAAAAAAAAAAAAAAAAAAAAAAAAAAAAAAAAAAAAAAAAAAAAAAAAAAAAAAAAAAAAAAAAAAAAAAAAAAAAAAAAAAAAAAAAAAAAAAAAAAAAAAAAAAAAAAAAAAAAAAAAAAAAAAAAAAAAAAAAAAAAAAAAAAAAAAAAAAAAAAAAAAAAAAAAAAAAAAAAAAAAAAAAAAAAAAAAAAAAAAAAAAAAAAAAAAAAAAAAAAAAAAAAAAAAAAAAAAAAAAAAAAAAAAAAAAAAAAAAAAAAAAAAAAAAAAAAAAAAAAAAAAAAAAAAAAAAAAAAAAAAAAAAAAAAAAAAAAAAAAAAAAAAAAAAAAAAAAAAAAAAAAAAAAAAAAAAAAAAAAAAAAAAAAAAAAAAAAAAAAAAAAAAAAAAAAAAAAAAAAAAAAAAAAAAAAAAAAAAAAAAAAAAAAAAAAAAAAAAAAAAAAAAAAAAAAAAAAAAAAAAAAAAAAAAAAAAAAAAAAAAAAAAAAAAAAAAAAAAAAAAAAAAAAAAAAAAAAAAAAAAAAAAAAAAAAAAAAAAAAAAAAAAAAAAAAAAAAAAAAAAAAAAAAAAAAAAAAAAAAAAAAAAAAAAAAAAAAAAAAAAAAAAAAAAAAAAAAAAAAAAAAAAAAAAAAAAAAAAAAAAAAAAAAAAAAAAAAAAAAAAAAAAAAAAAAAAAAAAAAAAAAAAAAAAAAAAAAAAAAAAAAAAAAAAAAAAAAAAAAAAAAAAAAAAAAAAAAAAAAAAAAAAAAAAAAAAAAAAAAAAAAAAAAAAAAAAAAAAAAAAAAAAAAAAAAAAAAAAAAAAAAAAAAAAAAAAAAAAAAAAAAAAAAAAAAAAAAAAAAAAAAAAAAAAAAAAAAAAAAAAAAAAAAAAAAAAAAAAAAAAAAAAAAAAAAAAAAAAAAAAAAAAAAAAAAAAAAAAAAAAAAAAAAAAAAAAAAAAAAAAAAAAAAAAAAAAAAAAAAAAAAAAAAAAAAAAAAAAAAAAAAAAAAAAAAAAAAAAAAAAAAAAAAAAAAAAAAAAAAAAAAAAAAAAAAAAAAAAAAAAAAAAAAAAAAAAAAAAAAAAAAAAAAAAAAAAAAAAAAAAAAAAAAAAAAAAAAAAAAAAAAAAAAAAAAAAAAAAAAAAAAAAAAAAAAAAAAAAAAAAAAAAAAAAAAAAAAAAAAAAAAAAAAAAAAAAAAAAAAAAAAAAAAAAAAAAAAAAAAAAAAAAAAAAAAAAAAAAAAAAAAAAAAAAAAAAAAAAAAAAAAAAAAAAAAAAAAAAAAAAAAAAAAAAAAAAAAAAAAAAAAAAAAAAAAAAAAAAAAAAAAAAAAAAAAAAAAAAAAAAAAAAAAAAAAAAAAAAAAAAAAAAAAAAAAAAAAAAAAAAAAAAAAAAAAAAAAAAAAAAAAAAAAAAAAAAAAAAAAAAAAAAAAAAAAAAAAAAAAAAAAAAAAAAAAAAAAAAAAAAAAAAAAAAAAAAAAAAAAAAAAAAAAAAAAAAAAAAAAAAAAAAAAAAAAAAAAAAAAAAAAAAAAAAAAAAAAAAAAAAAAAAAAAAAAAAAAAAAAAAAAAAAAAAAAAAAAAAAAAAAAAAAAAAAAAAAAAAAAAAAAAAAAAAAAAAAAAAAAAAAAAAAAAAAAAAAAAAAAAAAAAAAAAAAAAAAAAAAAAAAAAAAAAAAAAAAAAAAAAAAAAAAAAAAAAAAAAAAAAAAAAAAAAAAAAAAAAAAAAAAAAAAAAAAAAAAAAAAAAAAAAAAAAAAAAAAAAAAAAAAAAAAAAAAAAAAAAAAAAAAAAAAAAAAAAAAAAAAAAAAAAAAAAAAAAAAAAAAAAAAAAAAAAAAAAAAAAAAAAAAAAAAAAAAAAAAAAAAAAAAAAAAAAAAAAAAAAAAAAAAAAAAAAAAAAAAAAAAAAAAAAAAAAAAAAAAAAAAAAAAAAAAAAAAAAAAAAAAAAAAAAAAAAAAAAAAAAAAAAAAAAAAAAAAAAAAAAAAAAAAAAAAAAAAAAAAAAAAAAAAAAAAAAAAAAAAAAAAAAAAAAAAAAAAAAAAAAAAAAAAAAAAAAAAAAAAAAAAAAAAAAAAAAAAAAAAAAAAAAAAAAAAAAAAAAAAAAAAAAAAAAAAAAAAAAAAAAAAAAAAAAAAAAAAAAAAAAAAAAAAAAAAAAAAAAAAAAAAAAAAAAAAAAAAAAAAAAAAAAAAAAAAAAAAAAAAAAAAAAAAAAAAAAAAAAAAAAAAAAAAAAAAAAAAAAAAAAAAAAAAAAAAAAAAAAAAAAAAAAAAAAAAAAAAAAAAAAAAAAAAAAAAAAAAAAAAAAAAAAAAAAAAAAAAAAAAAAAAAAAAAAAAAAAAAAAAAAAAAAAAAAAAAAAAAAAAAAAAAAAAAAAAAAAAAAAAAAAAAAAAAAAAAAAAAAAAAAAAAAAAAAPZYQOGTuIVHaH6exY+d5QJj0NJ41uz7HOQ+PIQ8H307augDc/gX8+3ba+Z3ZVYycTdkMW2zNAc3xn4yiCo45zYQseQ=</c2pa:manifest></metadata><rect width="300" height="100" rx="18" fill="#FAF6EE"/><path d="M85.3046875 43.408203125Q84.0859375 42.291015625 82.4482421875 41.732421875Q80.810546875 41.173828125 78.85546875 41.173828125Q76.494140625 41.173828125 74.7294921875 41.9990234375Q72.96484375 42.82421875 72.0 44.3984375Q71.390625 45.36328125 71.1494140625 46.734375Q70.908203125 48.10546875 70.908203125 50.8984375V64.0H63.46875V35.5625H70.908203125V39.98046875Q72.0 37.54296875 74.259765625 36.2099609375Q76.51953125 34.876953125 79.541015625 34.876953125Q81.064453125 34.876953125 82.5244140625 35.2451171875Q83.984375 35.61328125 85.3046875 36.32421875Z" fill="#141414"/><path d="M103.02734375 40.919921875Q100.361328125 40.919921875 98.837890625 43.2685546875Q97.314453125 45.6171875 97.314453125 49.806640625Q97.314453125 53.99609375 98.837890625 56.3447265625Q100.361328125 58.693359375 103.02734375 58.693359375Q105.71875 58.693359375 107.2421875 56.3447265625Q108.765625 53.99609375 108.765625 49.806640625Q108.765625 45.6171875 107.2421875 43.2685546875Q105.71875 40.919921875 103.02734375 40.919921875ZM89.875 49.806640625Q89.875 42.92578125 93.4423828125 38.9013671875Q97.009765625 34.876953125 103.02734375 34.876953125Q109.0703125 34.876953125 112.6376953125 38.9013671875Q116.205078125 42.92578125 116.205078125 49.806640625Q116.205078125 56.6875 112.6376953125 60.7119140625Q109.0703125 64.736328125 103.02734375 64.736328125Q97.009765625 64.736328125 93.4423828125 60.7119140625Q89.875 56.6875 89.875 49.806640625Z" fill="#141414"/><path d="M122.755859375 54.072265625V35.5625H130.1953125V52.9296875Q130.1953125 56.001953125 131.05859375 57.322265625Q131.921875 58.642578125 133.927734375 58.642578125Q135.93359375 58.642578125 137.0634765625 56.865234375Q138.193359375 55.087890625 138.193359375 51.888671875V35.5625H145.6328125V64.0H138.193359375V59.78515625Q137.40625 62.146484375 135.5146484375 63.44140625Q133.623046875 64.736328125 130.95703125 64.736328125Q126.89453125 64.736328125 124.8251953125 62.044921875Q122.755859375 59.353515625 122.755859375 54.072265625Z" fill="#141414"/><path d="M155.154296875 63.4921875V56.662109375Q157.16015625 57.830078125 159.0009765625 58.388671875Q160.841796875 58.947265625 162.54296875 58.947265625Q166.580078125 58.947265625 168.7001953125 56.2431640625Q170.8203125 53.5390625 170.947265625 48.15625Q169.75390625 49.806640625 167.900390625 50.6318359375Q166.046875 51.45703125 163.5078125 51.45703125Q158.404296875 51.45703125 155.611328125 48.2197265625Q152.818359375 44.982421875 152.818359375 39.041015625Q152.818359375 32.693359375 155.94140625 29.21484375Q159.064453125 25.736328125 164.77734375 25.736328125Q171.708984375 25.736328125 174.8447265625 30.3701171875Q177.98046875 35.00390625 177.98046875 45.337890625Q177.98046875 55.1640625 174.146484375 60.0771484375Q170.3125 64.990234375 162.64453125 64.990234375Q160.8671875 64.990234375 158.9755859375 64.609375Q157.083984375 64.228515625 155.154296875 63.4921875ZM164.98046875 45.185546875Q167.392578125 45.185546875 168.6748046875 43.4208984375Q169.95703125 41.65625 169.95703125 38.3046875Q169.95703125 34.978515625 168.6748046875 33.2138671875Q167.392578125 31.44921875 164.98046875 31.44921875Q162.54296875 31.44921875 161.2353515625 33.2138671875Q159.927734375 34.978515625 159.927734375 38.3046875Q159.927734375 41.630859375 161.2353515625 43.408203125Q162.54296875 45.185546875 164.98046875 45.185546875Z" fill="#D62828"/><path d="M199.080078125 50.64453125Q194.916015625 50.64453125 193.265625 51.7109375Q191.615234375 52.77734375 191.615234375 55.3671875Q191.615234375 57.296875 192.7578125 58.439453125Q193.900390625 59.58203125 195.85546875 59.58203125Q198.80078125 59.58203125 200.42578125 57.3603515625Q202.05078125 55.138671875 202.05078125 51.15234375V50.64453125ZM209.439453125 47.775390625V64.0H202.05078125V60.826171875Q200.705078125 62.705078125 198.59765625 63.720703125Q196.490234375 64.736328125 193.951171875 64.736328125Q189.1015625 64.736328125 186.3974609375 62.171875Q183.693359375 59.607421875 183.693359375 55.01171875Q183.693359375 50.03515625 186.91796875 47.6611328125Q190.142578125 45.287109375 196.896484375 45.287109375H202.05078125V44.04296875Q202.05078125 42.240234375 200.7431640625 41.3134765625Q199.435546875 40.38671875 196.896484375 40.38671875Q194.23046875 40.38671875 191.7294921875 41.0595703125Q189.228515625 41.732421875 186.51171875 43.205078125V36.857421875Q188.974609375 35.841796875 191.513671875 35.359375Q194.052734375 34.876953125 196.896484375 34.876953125Q203.828125 34.876953125 206.6337890625 37.6953125Q209.439453125 40.513671875 209.439453125 47.775390625Z" fill="#141414"/><path d="M217.03125 24.4921875H224.470703125V45.236328125L233.408203125 35.5625H242.421875L231.65625 46.17578125L243.03125 64.0H234.8046875L227.009765625 50.6953125L224.470703125 53.1328125V64.0H217.03125Z" fill="#141414"/><path d="M71.7333984375 80 H228.2666015625" stroke="#141414" stroke-width="2.5" stroke-linecap="round"/><circle cx="71.7" cy="80" r="3.6" fill="#141414"/><circle cx="165.7" cy="80" r="3.6" fill="#D62828"/><circle cx="228.3" cy="80" r="3.6" fill="#141414"/></svg>